<svg xmlns="http://www.w3.org/2000/svg" width="1646" height="550" font-family="system-ui, sans-serif" font-size="11">
<rect width="1646" height="550" fill="white"/>
<text x="823.0" y="28" text-anchor="middle" font-size="16" font-weight="bold">Disk backends (fs, pack, lavyek) — ops/s comparison</text>
<g transform="translate(120,60)">
<text x="-85" y="200.0" text-anchor="middle" font-size="12" fill="#333" transform="rotate(-90,-85,200.0)">ops/s</text>
<line x1="0" y1="300.0" x2="142" y2="300.0" stroke="#e0e0e0" stroke-width="0.5"/>
<line x1="0" y1="200.0" x2="142" y2="200.0" stroke="#e0e0e0" stroke-width="0.5"/>
<line x1="0" y1="100.0" x2="142" y2="100.0" stroke="#e0e0e0" stroke-width="0.5"/>
<line x1="0" y1="0.0" x2="142" y2="0.0" stroke="#e0e0e0" stroke-width="0.5"/>
<text x="-4.0" y="4.0" text-anchor="end" font-size="8" fill="#999">3k</text>
<rect x="0.0" y="377.5" width="22" height="22.5" fill="#f7c96e" rx="1"/>
<text x="11.0" y="374.5" text-anchor="middle" font-size="7" fill="#333">174</text>
<rect x="24.0" y="81.6" width="22" height="318.4" fill="#f5a623" rx="1"/>
<text x="35.0" y="78.6" text-anchor="middle" font-size="7" fill="#333">2k</text>
<rect x="48.0" y="384.1" width="22" height="15.9" fill="#f0a1a2" rx="1"/>
<text x="59.0" y="381.1" text-anchor="middle" font-size="7" fill="#333">123</text>
<rect x="72.0" y="254.5" width="22" height="145.5" fill="#e87c7e" rx="1"/>
<text x="83.0" y="251.5" text-anchor="middle" font-size="7" fill="#333">1k</text>
<rect x="96.0" y="398.7" width="22" height="1.3" fill="#6d9dc5" rx="1"/>
<text x="107.0" y="395.7" text-anchor="middle" font-size="7" fill="#333">9</text>
<rect x="120.0" y="52.2" width="22" height="347.8" fill="#59a14f" rx="1"/>
<text x="131.0" y="49.2" text-anchor="middle" font-size="7" fill="#333">3k</text>
<text x="71.0" y="416" text-anchor="middle" font-size="11" font-weight="bold" fill="#333">incremental-10K</text>
<line x1="192" y1="300.0" x2="334" y2="300.0" stroke="#e0e0e0" stroke-width="0.5"/>
<line x1="192" y1="200.0" x2="334" y2="200.0" stroke="#e0e0e0" stroke-width="0.5"/>
<line x1="192" y1="100.0" x2="334" y2="100.0" stroke="#e0e0e0" stroke-width="0.5"/>
<line x1="192" y1="0.0" x2="334" y2="0.0" stroke="#e0e0e0" stroke-width="0.5"/>
<text x="188.0" y="4.0" text-anchor="end" font-size="8" fill="#999">1.6M</text>
<rect x="192.0" y="359.6" width="22" height="40.4" fill="#f7c96e" rx="1"/>
<text x="203.0" y="356.6" text-anchor="middle" font-size="7" fill="#333">164k</text>
<rect x="216.0" y="101.5" width="22" height="298.5" fill="#f5a623" rx="1"/>
<text x="227.0" y="98.5" text-anchor="middle" font-size="7" fill="#333">1.2M</text>
<rect x="240.0" y="377.4" width="22" height="22.6" fill="#f0a1a2" rx="1"/>
<text x="251.0" y="374.4" text-anchor="middle" font-size="7" fill="#333">92k</text>
<rect x="264.0" y="52.2" width="22" height="347.8" fill="#e87c7e" rx="1"/>
<text x="275.0" y="49.2" text-anchor="middle" font-size="7" fill="#333">1.4M</text>
<rect x="288.0" y="382.4" width="22" height="17.6" fill="#6d9dc5" rx="1"/>
<text x="299.0" y="379.4" text-anchor="middle" font-size="7" fill="#333">71k</text>
<rect x="312.0" y="329.5" width="22" height="70.5" fill="#59a14f" rx="1"/>
<text x="323.0" y="326.5" text-anchor="middle" font-size="7" fill="#333">286k</text>
<text x="263.0" y="416" text-anchor="middle" font-size="11" font-weight="bold" fill="#333">reads-10K</text>
<line x1="384" y1="300.0" x2="526" y2="300.0" stroke="#e0e0e0" stroke-width="0.5"/>
<line x1="384" y1="200.0" x2="526" y2="200.0" stroke="#e0e0e0" stroke-width="0.5"/>
<line x1="384" y1="100.0" x2="526" y2="100.0" stroke="#e0e0e0" stroke-width="0.5"/>
<line x1="384" y1="0.0" x2="526" y2="0.0" stroke="#e0e0e0" stroke-width="0.5"/>
<text x="380.0" y="4.0" text-anchor="end" font-size="8" fill="#999">16k</text>
<rect x="384.0" y="107.6" width="22" height="292.4" fill="#f7c96e" rx="1"/>
<text x="395.0" y="104.6" text-anchor="middle" font-size="7" fill="#333">12k</text>
<rect x="408.0" y="52.2" width="22" height="347.8" fill="#f5a623" rx="1"/>
<text x="419.0" y="49.2" text-anchor="middle" font-size="7" fill="#333">14k</text>
<rect x="432.0" y="138.3" width="22" height="261.7" fill="#f0a1a2" rx="1"/>
<text x="443.0" y="135.3" text-anchor="middle" font-size="7" fill="#333">11k</text>
<rect x="456.0" y="111.9" width="22" height="288.1" fill="#e87c7e" rx="1"/>
<text x="467.0" y="108.9" text-anchor="middle" font-size="7" fill="#333">12k</text>
<rect x="480.0" y="367.8" width="22" height="32.2" fill="#6d9dc5" rx="1"/>
<text x="491.0" y="364.8" text-anchor="middle" font-size="7" fill="#333">1k</text>
<rect x="504.0" y="175.7" width="22" height="224.3" fill="#59a14f" rx="1"/>
<text x="515.0" y="172.7" text-anchor="middle" font-size="7" fill="#333">9k</text>
<text x="455.0" y="416" text-anchor="middle" font-size="11" font-weight="bold" fill="#333">commits-10K</text>
<line x1="576" y1="300.0" x2="718" y2="300.0" stroke="#e0e0e0" stroke-width="0.5"/>
<line x1="576" y1="200.0" x2="718" y2="200.0" stroke="#e0e0e0" stroke-width="0.5"/>
<line x1="576" y1="100.0" x2="718" y2="100.0" stroke="#e0e0e0" stroke-width="0.5"/>
<line x1="576" y1="0.0" x2="718" y2="0.0" stroke="#e0e0e0" stroke-width="0.5"/>
<text x="572.0" y="4.0" text-anchor="end" font-size="8" fill="#999">4k</text>
<rect x="576.0" y="383.8" width="22" height="16.2" fill="#f7c96e" rx="1"/>
<text x="587.0" y="380.8" text-anchor="middle" font-size="7" fill="#333">179</text>
<rect x="600.0" y="263.9" width="22" height="136.1" fill="#f5a623" rx="1"/>
<text x="611.0" y="260.9" text-anchor="middle" font-size="7" fill="#333">2k</text>
<rect x="624.0" y="387.7" width="22" height="12.3" fill="#f0a1a2" rx="1"/>
<text x="635.0" y="384.7" text-anchor="middle" font-size="7" fill="#333">136</text>
<rect x="648.0" y="231.3" width="22" height="168.7" fill="#e87c7e" rx="1"/>
<text x="659.0" y="228.3" text-anchor="middle" font-size="7" fill="#333">2k</text>
<rect x="672.0" y="399.1" width="22" height="0.9" fill="#6d9dc5" rx="1"/>
<text x="683.0" y="396.1" text-anchor="middle" font-size="7" fill="#333">10</text>
<rect x="696.0" y="52.2" width="22" height="347.8" fill="#59a14f" rx="1"/>
<text x="707.0" y="49.2" text-anchor="middle" font-size="7" fill="#333">4k</text>
<text x="647.0" y="416" text-anchor="middle" font-size="11" font-weight="bold" fill="#333">incremental-20B</text>
<line x1="768" y1="300.0" x2="910" y2="300.0" stroke="#e0e0e0" stroke-width="0.5"/>
<line x1="768" y1="200.0" x2="910" y2="200.0" stroke="#e0e0e0" stroke-width="0.5"/>
<line x1="768" y1="100.0" x2="910" y2="100.0" stroke="#e0e0e0" stroke-width="0.5"/>
<line x1="768" y1="0.0" x2="910" y2="0.0" stroke="#e0e0e0" stroke-width="0.5"/>
<text x="764.0" y="4.0" text-anchor="end" font-size="8" fill="#999">1.6M</text>
<rect x="768.0" y="373.6" width="22" height="26.4" fill="#f7c96e" rx="1"/>
<text x="779.0" y="370.6" text-anchor="middle" font-size="7" fill="#333">106k</text>
<rect x="792.0" y="220.6" width="22" height="179.4" fill="#f5a623" rx="1"/>
<text x="803.0" y="217.6" text-anchor="middle" font-size="7" fill="#333">719k</text>
<rect x="816.0" y="358.5" width="22" height="41.5" fill="#f0a1a2" rx="1"/>
<text x="827.0" y="355.5" text-anchor="middle" font-size="7" fill="#333">166k</text>
<rect x="840.0" y="52.2" width="22" height="347.8" fill="#e87c7e" rx="1"/>
<text x="851.0" y="49.2" text-anchor="middle" font-size="7" fill="#333">1.4M</text>
<rect x="864.0" y="345.2" width="22" height="54.8" fill="#6d9dc5" rx="1"/>
<text x="875.0" y="342.2" text-anchor="middle" font-size="7" fill="#333">219k</text>
<rect x="888.0" y="283.5" width="22" height="116.5" fill="#59a14f" rx="1"/>
<text x="899.0" y="280.5" text-anchor="middle" font-size="7" fill="#333">467k</text>
<text x="839.0" y="416" text-anchor="middle" font-size="11" font-weight="bold" fill="#333">reads-20B</text>
<line x1="960" y1="300.0" x2="1102" y2="300.0" stroke="#e0e0e0" stroke-width="0.5"/>
<line x1="960" y1="200.0" x2="1102" y2="200.0" stroke="#e0e0e0" stroke-width="0.5"/>
<line x1="960" y1="100.0" x2="1102" y2="100.0" stroke="#e0e0e0" stroke-width="0.5"/>
<line x1="960" y1="0.0" x2="1102" y2="0.0" stroke="#e0e0e0" stroke-width="0.5"/>
<text x="956.0" y="4.0" text-anchor="end" font-size="8" fill="#999">97k</text>
<rect x="960.0" y="250.6" width="22" height="149.4" fill="#f7c96e" rx="1"/>
<text x="971.0" y="247.6" text-anchor="middle" font-size="7" fill="#333">36k</text>
<rect x="984.0" y="118.0" width="22" height="282.0" fill="#f5a623" rx="1"/>
<text x="995.0" y="115.0" text-anchor="middle" font-size="7" fill="#333">68k</text>
<rect x="1008.0" y="287.8" width="22" height="112.2" fill="#f0a1a2" rx="1"/>
<text x="1019.0" y="284.8" text-anchor="middle" font-size="7" fill="#333">27k</text>
<rect x="1032.0" y="233.3" width="22" height="166.7" fill="#e87c7e" rx="1"/>
<text x="1043.0" y="230.3" text-anchor="middle" font-size="7" fill="#333">40k</text>
<rect x="1056.0" y="393.6" width="22" height="6.4" fill="#6d9dc5" rx="1"/>
<text x="1067.0" y="390.6" text-anchor="middle" font-size="7" fill="#333">2k</text>
<rect x="1080.0" y="52.2" width="22" height="347.8" fill="#59a14f" rx="1"/>
<text x="1091.0" y="49.2" text-anchor="middle" font-size="7" fill="#333">84k</text>
<text x="1031.0" y="416" text-anchor="middle" font-size="11" font-weight="bold" fill="#333">commits-20B</text>
<line x1="1152" y1="300.0" x2="1294" y2="300.0" stroke="#e0e0e0" stroke-width="0.5"/>
<line x1="1152" y1="200.0" x2="1294" y2="200.0" stroke="#e0e0e0" stroke-width="0.5"/>
<line x1="1152" y1="100.0" x2="1294" y2="100.0" stroke="#e0e0e0" stroke-width="0.5"/>
<line x1="1152" y1="0.0" x2="1294" y2="0.0" stroke="#e0e0e0" stroke-width="0.5"/>
<text x="1148.0" y="4.0" text-anchor="end" font-size="8" fill="#999">155k</text>
<rect x="1176.0" y="52.2" width="22" height="347.8" fill="#f5a623" rx="1"/>
<text x="1187.0" y="49.2" text-anchor="middle" font-size="7" fill="#333">135k</text>
<rect x="1224.0" y="186.3" width="22" height="213.7" fill="#e87c7e" rx="1"/>
<text x="1235.0" y="183.3" text-anchor="middle" font-size="7" fill="#333">83k</text>
<rect x="1272.0" y="225.0" width="22" height="175.0" fill="#59a14f" rx="1"/>
<text x="1283.0" y="222.0" text-anchor="middle" font-size="7" fill="#333">68k</text>
<text x="1223.0" y="416" text-anchor="middle" font-size="11" font-weight="bold" fill="#333">tezos-10310commits</text>
<line x1="1344" y1="300.0" x2="1486" y2="300.0" stroke="#e0e0e0" stroke-width="0.5"/>
<line x1="1344" y1="200.0" x2="1486" y2="200.0" stroke="#e0e0e0" stroke-width="0.5"/>
<line x1="1344" y1="100.0" x2="1486" y2="100.0" stroke="#e0e0e0" stroke-width="0.5"/>
<line x1="1344" y1="0.0" x2="1486" y2="0.0" stroke="#e0e0e0" stroke-width="0.5"/>
<text x="1340.0" y="4.0" text-anchor="end" font-size="8" fill="#999">262k</text>
<rect x="1440.0" y="399.6" width="22" height="0.4" fill="#6d9dc5" rx="1"/>
<text x="1451.0" y="396.6" text-anchor="middle" font-size="7" fill="#333">271</text>
<rect x="1464.0" y="52.2" width="22" height="347.8" fill="#59a14f" rx="1"/>
<text x="1475.0" y="49.2" text-anchor="middle" font-size="7" fill="#333">228k</text>
<text x="1415.0" y="416" text-anchor="middle" font-size="11" font-weight="bold" fill="#333">concurrent-100f/12d</text>
<line x1="0" y1="400" x2="1486" y2="400" stroke="#333" stroke-width="1"/>
</g>
<g transform="translate(120,500)">
<rect x="0" y="0" width="12" height="12" fill="#f7c96e" rx="2"/>
<text x="16" y="10" font-size="10" fill="#333">Irmin-Lwt (fs)</text>
<rect x="180" y="0" width="12" height="12" fill="#f5a623" rx="2"/>
<text x="196" y="10" font-size="10" fill="#333">Irmin-Lwt (pack)</text>
<rect x="360" y="0" width="12" height="12" fill="#f0a1a2" rx="2"/>
<text x="376" y="10" font-size="10" fill="#333">Irmin-Eio (fs)</text>
<rect x="540" y="0" width="12" height="12" fill="#e87c7e" rx="2"/>
<text x="556" y="10" font-size="10" fill="#333">Irmin-Eio (pack)</text>
<rect x="0" y="20" width="12" height="12" fill="#6d9dc5" rx="2"/>
<text x="16" y="30" font-size="10" fill="#333">Irmini (disk)</text>
<rect x="180" y="20" width="12" height="12" fill="#59a14f" rx="2"/>
<text x="196" y="30" font-size="10" fill="#333">Irmini (lavyek)</text>
</g>
</svg>