<svg xmlns="http://www.w3.org/2000/svg" width="1592" height="503" font-family="system-ui, sans-serif" font-size="14">
<rect width="1592" height="503" fill="white"/>
<defs>
<pattern id="hatch-5324" width="8" height="8" patternUnits="userSpaceOnUse"><rect width="8" height="8" fill="#e87c7e"/><line x1="0" y1="0" x2="8" y2="8" stroke="white" stroke-width="1.5"/><line x1="8" y1="0" x2="0" y2="8" stroke="white" stroke-width="1.5"/></pattern>
<pattern id="hatch-1593" width="6" height="6" patternUnits="userSpaceOnUse" patternTransform="rotate(45)"><rect width="6" height="6" fill="#6d9dc5"/><line x1="0" y1="0" x2="0" y2="6" stroke="white" stroke-width="2"/></pattern>
<pattern id="hatch-1451" width="6" height="6" patternUnits="userSpaceOnUse" patternTransform="rotate(45)"><rect width="6" height="6" fill="#59a14f"/><line x1="0" y1="0" x2="0" y2="6" stroke="white" stroke-width="2"/></pattern>
<pattern id="hatch-3780" width="8" height="8" patternUnits="userSpaceOnUse"><rect width="8" height="8" fill="#59a14f"/><line x1="0" y1="0" x2="8" y2="8" stroke="white" stroke-width="1.5"/><line x1="8" y1="0" x2="0" y2="8" stroke="white" stroke-width="1.5"/></pattern>
</defs>
<text x="796.0" y="32" text-anchor="middle" font-size="20" font-weight="bold">Disk backends — multi-core (100 fibers, 12 domains)</text>
<g transform="translate(100,50)">
<text x="-75" y="175.0" text-anchor="middle" font-size="14" fill="#333" transform="rotate(-90,-75,175.0)">ops/s</text>
<line x1="0" y1="262.5" x2="166" y2="262.5" stroke="#e0e0e0" stroke-width="0.5"/>
<line x1="0" y1="175.0" x2="166" y2="175.0" stroke="#e0e0e0" stroke-width="0.5"/>
<line x1="0" y1="87.5" x2="166" y2="87.5" stroke="#e0e0e0" stroke-width="0.5"/>
<line x1="0" y1="0.0" x2="166" y2="0.0" stroke="#e0e0e0" stroke-width="0.5"/>
<text x="-4.0" y="4.0" text-anchor="end" font-size="10" fill="#999">255k</text>
<rect x="48.0" y="347.9" width="22" height="2.1" fill="#aec9df" rx="1"/>
<text x="59.0" y="344.9" text-anchor="middle" font-size="9" fill="#333">2k</text>
<rect x="72.0" y="317.6" width="22" height="32.4" fill="url(#hatch-1593)" rx="1"/>
<text x="83.0" y="314.6" text-anchor="middle" font-size="9" fill="#333">24k</text>
<rect x="96.0" y="88.8" width="22" height="261.2" fill="#a3cb9e" rx="1"/>
<text x="107.0" y="85.8" text-anchor="middle" font-size="9" fill="#333">190k</text>
<rect x="120.0" y="45.7" width="22" height="304.3" fill="url(#hatch-1451)" rx="1"/>
<text x="131.0" y="42.7" text-anchor="middle" font-size="9" fill="#333">222k</text>
<text x="83.0" y="368" text-anchor="middle" font-size="13" font-weight="bold" fill="#333">commits-20B</text>
<line x1="216" y1="262.5" x2="382" y2="262.5" stroke="#e0e0e0" stroke-width="0.5"/>
<line x1="216" y1="175.0" x2="382" y2="175.0" stroke="#e0e0e0" stroke-width="0.5"/>
<line x1="216" y1="87.5" x2="382" y2="87.5" stroke="#e0e0e0" stroke-width="0.5"/>
<line x1="216" y1="0.0" x2="382" y2="0.0" stroke="#e0e0e0" stroke-width="0.5"/>
<text x="212.0" y="4.0" text-anchor="end" font-size="10" fill="#999">1.9M</text>
<rect x="264.0" y="309.8" width="22" height="40.2" fill="#aec9df" rx="1"/>
<text x="275.0" y="306.8" text-anchor="middle" font-size="9" fill="#333">219k</text>
<rect x="288.0" y="272.0" width="22" height="78.0" fill="url(#hatch-1593)" rx="1"/>
<text x="299.0" y="269.0" text-anchor="middle" font-size="9" fill="#333">426k</text>
<rect x="312.0" y="45.7" width="22" height="304.3" fill="#a3cb9e" rx="1"/>
<text x="323.0" y="42.7" text-anchor="middle" font-size="9" fill="#333">1.7M</text>
<rect x="336.0" y="208.3" width="22" height="141.7" fill="url(#hatch-1451)" rx="1"/>
<text x="347.0" y="205.3" text-anchor="middle" font-size="9" fill="#333">774k</text>
<text x="299.0" y="368" text-anchor="middle" font-size="13" font-weight="bold" fill="#333">reads-20B</text>
<line x1="432" y1="262.5" x2="598" y2="262.5" stroke="#e0e0e0" stroke-width="0.5"/>
<line x1="432" y1="175.0" x2="598" y2="175.0" stroke="#e0e0e0" stroke-width="0.5"/>
<line x1="432" y1="87.5" x2="598" y2="87.5" stroke="#e0e0e0" stroke-width="0.5"/>
<line x1="432" y1="0.0" x2="598" y2="0.0" stroke="#e0e0e0" stroke-width="0.5"/>
<text x="428.0" y="4.0" text-anchor="end" font-size="10" fill="#999">7k</text>
<rect x="480.0" y="349.5" width="22" height="0.5" fill="#aec9df" rx="1"/>
<text x="491.0" y="346.5" text-anchor="middle" font-size="9" fill="#333">10</text>
<rect x="504.0" y="344.9" width="22" height="5.1" fill="url(#hatch-1593)" rx="1"/>
<text x="515.0" y="341.9" text-anchor="middle" font-size="9" fill="#333">98</text>
<rect x="528.0" y="45.7" width="22" height="304.3" fill="#a3cb9e" rx="1"/>
<text x="539.0" y="42.7" text-anchor="middle" font-size="9" fill="#333">6k</text>
<rect x="552.0" y="114.5" width="22" height="235.5" fill="url(#hatch-1451)" rx="1"/>
<text x="563.0" y="111.5" text-anchor="middle" font-size="9" fill="#333">5k</text>
<text x="515.0" y="368" text-anchor="middle" font-size="13" font-weight="bold" fill="#333">incremental-20B</text>
<line x1="648" y1="262.5" x2="814" y2="262.5" stroke="#e0e0e0" stroke-width="0.5"/>
<line x1="648" y1="175.0" x2="814" y2="175.0" stroke="#e0e0e0" stroke-width="0.5"/>
<line x1="648" y1="87.5" x2="814" y2="87.5" stroke="#e0e0e0" stroke-width="0.5"/>
<line x1="648" y1="0.0" x2="814" y2="0.0" stroke="#e0e0e0" stroke-width="0.5"/>
<text x="644.0" y="4.0" text-anchor="end" font-size="10" fill="#999">17k</text>
<rect x="696.0" y="322.9" width="22" height="27.1" fill="#aec9df" rx="1"/>
<text x="707.0" y="319.9" text-anchor="middle" font-size="9" fill="#333">1k</text>
<rect x="720.0" y="60.2" width="22" height="289.8" fill="url(#hatch-1593)" rx="1"/>
<text x="731.0" y="57.2" text-anchor="middle" font-size="9" fill="#333">14k</text>
<rect x="744.0" y="166.3" width="22" height="183.7" fill="#a3cb9e" rx="1"/>
<text x="755.0" y="163.3" text-anchor="middle" font-size="9" fill="#333">9k</text>
<rect x="768.0" y="45.7" width="22" height="304.3" fill="url(#hatch-1451)" rx="1"/>
<text x="779.0" y="42.7" text-anchor="middle" font-size="9" fill="#333">15k</text>
<text x="731.0" y="368" text-anchor="middle" font-size="13" font-weight="bold" fill="#333">commits-10K</text>
<line x1="864" y1="262.5" x2="1030" y2="262.5" stroke="#e0e0e0" stroke-width="0.5"/>
<line x1="864" y1="175.0" x2="1030" y2="175.0" stroke="#e0e0e0" stroke-width="0.5"/>
<line x1="864" y1="87.5" x2="1030" y2="87.5" stroke="#e0e0e0" stroke-width="0.5"/>
<line x1="864" y1="0.0" x2="1030" y2="0.0" stroke="#e0e0e0" stroke-width="0.5"/>
<text x="860.0" y="4.0" text-anchor="end" font-size="10" fill="#999">1.4M</text>
<rect x="912.0" y="331.6" width="22" height="18.4" fill="#aec9df" rx="1"/>
<text x="923.0" y="328.6" text-anchor="middle" font-size="9" fill="#333">71k</text>
<rect x="936.0" y="156.1" width="22" height="193.9" fill="url(#hatch-1593)" rx="1"/>
<text x="947.0" y="153.1" text-anchor="middle" font-size="9" fill="#333">752k</text>
<rect x="960.0" y="45.7" width="22" height="304.3" fill="#a3cb9e" rx="1"/>
<text x="971.0" y="42.7" text-anchor="middle" font-size="9" fill="#333">1.2M</text>
<rect x="984.0" y="192.2" width="22" height="157.8" fill="url(#hatch-1451)" rx="1"/>
<text x="995.0" y="189.2" text-anchor="middle" font-size="9" fill="#333">612k</text>
<text x="947.0" y="368" text-anchor="middle" font-size="13" font-weight="bold" fill="#333">reads-10K</text>
<line x1="1080" y1="262.5" x2="1246" y2="262.5" stroke="#e0e0e0" stroke-width="0.5"/>
<line x1="1080" y1="175.0" x2="1246" y2="175.0" stroke="#e0e0e0" stroke-width="0.5"/>
<line x1="1080" y1="87.5" x2="1246" y2="87.5" stroke="#e0e0e0" stroke-width="0.5"/>
<line x1="1080" y1="0.0" x2="1246" y2="0.0" stroke="#e0e0e0" stroke-width="0.5"/>
<text x="1076.0" y="4.0" text-anchor="end" font-size="10" fill="#999">6k</text>
<rect x="1128.0" y="349.4" width="22" height="0.6" fill="#aec9df" rx="1"/>
<text x="1139.0" y="346.4" text-anchor="middle" font-size="9" fill="#333">9</text>
<rect x="1152.0" y="345.6" width="22" height="4.4" fill="url(#hatch-1593)" rx="1"/>
<text x="1163.0" y="342.6" text-anchor="middle" font-size="9" fill="#333">70</text>
<rect x="1176.0" y="136.2" width="22" height="213.8" fill="#a3cb9e" rx="1"/>
<text x="1187.0" y="133.2" text-anchor="middle" font-size="9" fill="#333">3k</text>
<rect x="1200.0" y="45.7" width="22" height="304.3" fill="url(#hatch-1451)" rx="1"/>
<text x="1211.0" y="42.7" text-anchor="middle" font-size="9" fill="#333">5k</text>
<text x="1163.0" y="368" text-anchor="middle" font-size="13" font-weight="bold" fill="#333">incremental-10K</text>
<line x1="1296" y1="262.5" x2="1462" y2="262.5" stroke="#e0e0e0" stroke-width="0.5"/>
<line x1="1296" y1="175.0" x2="1462" y2="175.0" stroke="#e0e0e0" stroke-width="0.5"/>
<line x1="1296" y1="87.5" x2="1462" y2="87.5" stroke="#e0e0e0" stroke-width="0.5"/>
<line x1="1296" y1="0.0" x2="1462" y2="0.0" stroke="#e0e0e0" stroke-width="0.5"/>
<text x="1292.0" y="4.0" text-anchor="end" font-size="10" fill="#999">5.8M</text>
<rect x="1296.0" y="345.0" width="22" height="5.0" fill="#f2b6b8" rx="1"/>
<text x="1307.0" y="342.0" text-anchor="middle" font-size="9" fill="#333">83k</text>
<rect x="1320.0" y="337.7" width="22" height="12.3" fill="url(#hatch-5324)" rx="1"/>
<text x="1331.0" y="334.7" text-anchor="middle" font-size="9" fill="#333">205k</text>
<rect x="1392.0" y="341.9" width="22" height="8.1" fill="#a3cb9e" rx="1"/>
<text x="1403.0" y="338.9" text-anchor="middle" font-size="9" fill="#333">135k</text>
<rect x="1440.0" y="45.7" width="22" height="304.3" fill="url(#hatch-3780)" rx="1"/>
<text x="1451.0" y="42.7" text-anchor="middle" font-size="9" fill="#333">5.1M</text>
<text x="1379.0" y="368" text-anchor="middle" font-size="13" font-weight="bold" fill="#333">tezos-10310commits</text>
<line x1="0" y1="350" x2="1462" y2="350" stroke="#333" stroke-width="1"/>
</g>
<g transform="translate(100,440)">
<rect x="0" y="0" width="14" height="14" fill="#f2b6b8" rx="2"/>
<text x="18" y="12" font-size="13" fill="#333">Irmin-Eio (pack) (seq)</text>
<rect x="200" y="0" width="14" height="14" fill="url(#hatch-5324)" rx="2"/>
<text x="218" y="12" font-size="13" fill="#333">Irmin-Eio (pack) 12d×1f</text>
<rect x="400" y="0" width="14" height="14" fill="#aec9df" rx="2"/>
<text x="418" y="12" font-size="13" fill="#333">Irmini (disk) (seq)</text>
<rect x="600" y="0" width="14" height="14" fill="url(#hatch-1593)" rx="2"/>
<text x="618" y="12" font-size="13" fill="#333">Irmini (disk) 12d×100f</text>
<rect x="0" y="24" width="14" height="14" fill="#a3cb9e" rx="2"/>
<text x="18" y="36" font-size="13" fill="#333">Irmini (lavyek) (seq)</text>
<rect x="200" y="24" width="14" height="14" fill="url(#hatch-1451)" rx="2"/>
<text x="218" y="36" font-size="13" fill="#333">Irmini (lavyek) 12d×100f</text>
<rect x="400" y="24" width="14" height="14" fill="url(#hatch-3780)" rx="2"/>
<text x="418" y="36" font-size="13" fill="#333">Irmini (lavyek) 12d×50kf</text>
</g>
</svg>