<svg xmlns="http://www.w3.org/2000/svg" width="1256" height="503" font-family="system-ui, sans-serif" font-size="14">
<rect width="1256" height="503" fill="white"/>
<defs>
</defs>
<text x="628.0" y="32" text-anchor="middle" font-size="20" font-weight="bold">Memory backends — single-core</text>
<g transform="translate(100,50)">
<text x="-75" y="175.0" text-anchor="middle" font-size="14" fill="#333" transform="rotate(-90,-75,175.0)">ops/s</text>
<line x1="0" y1="262.5" x2="118" y2="262.5" stroke="#e0e0e0" stroke-width="0.5"/>
<line x1="0" y1="175.0" x2="118" y2="175.0" stroke="#e0e0e0" stroke-width="0.5"/>
<line x1="0" y1="87.5" x2="118" y2="87.5" stroke="#e0e0e0" stroke-width="0.5"/>
<line x1="0" y1="0.0" x2="118" y2="0.0" stroke="#e0e0e0" stroke-width="0.5"/>
<text x="-4.0" y="4.0" text-anchor="end" font-size="10" fill="#999">187k</text>
<rect x="0.0" y="47.9" width="22" height="302.1" fill="#f28e2b" rx="1"/>
<text x="11.0" y="44.9" text-anchor="middle" font-size="9" fill="#333">161k</text>
<rect x="48.0" y="45.7" width="22" height="304.3" fill="#e15759" rx="1"/>
<text x="59.0" y="42.7" text-anchor="middle" font-size="9" fill="#333">162k</text>
<rect x="96.0" y="69.9" width="22" height="280.1" fill="#4e79a7" rx="1"/>
<text x="107.0" y="66.9" text-anchor="middle" font-size="9" fill="#333">149k</text>
<text x="59.0" y="368" text-anchor="middle" font-size="13" font-weight="bold" fill="#333">commits-20B</text>
<line x1="168" y1="262.5" x2="286" y2="262.5" stroke="#e0e0e0" stroke-width="0.5"/>
<line x1="168" y1="175.0" x2="286" y2="175.0" stroke="#e0e0e0" stroke-width="0.5"/>
<line x1="168" y1="87.5" x2="286" y2="87.5" stroke="#e0e0e0" stroke-width="0.5"/>
<line x1="168" y1="0.0" x2="286" y2="0.0" stroke="#e0e0e0" stroke-width="0.5"/>
<text x="164.0" y="4.0" text-anchor="end" font-size="10" fill="#999">3.7M</text>
<rect x="168.0" y="232.8" width="22" height="117.2" fill="#f28e2b" rx="1"/>
<text x="179.0" y="229.8" text-anchor="middle" font-size="9" fill="#333">1.3M</text>
<rect x="216.0" y="231.1" width="22" height="118.9" fill="#e15759" rx="1"/>
<text x="227.0" y="228.1" text-anchor="middle" font-size="9" fill="#333">1.3M</text>
<rect x="264.0" y="45.7" width="22" height="304.3" fill="#4e79a7" rx="1"/>
<text x="275.0" y="42.7" text-anchor="middle" font-size="9" fill="#333">3.3M</text>
<text x="227.0" y="368" text-anchor="middle" font-size="13" font-weight="bold" fill="#333">reads-20B</text>
<line x1="336" y1="262.5" x2="454" y2="262.5" stroke="#e0e0e0" stroke-width="0.5"/>
<line x1="336" y1="175.0" x2="454" y2="175.0" stroke="#e0e0e0" stroke-width="0.5"/>
<line x1="336" y1="87.5" x2="454" y2="87.5" stroke="#e0e0e0" stroke-width="0.5"/>
<line x1="336" y1="0.0" x2="454" y2="0.0" stroke="#e0e0e0" stroke-width="0.5"/>
<text x="332.0" y="4.0" text-anchor="end" font-size="10" fill="#999">5k</text>
<rect x="336.0" y="268.2" width="22" height="81.8" fill="#f28e2b" rx="1"/>
<text x="347.0" y="265.2" text-anchor="middle" font-size="9" fill="#333">1k</text>
<rect x="384.0" y="249.7" width="22" height="100.3" fill="#e15759" rx="1"/>
<text x="395.0" y="246.7" text-anchor="middle" font-size="9" fill="#333">1k</text>
<rect x="432.0" y="45.7" width="22" height="304.3" fill="#4e79a7" rx="1"/>
<text x="443.0" y="42.7" text-anchor="middle" font-size="9" fill="#333">4k</text>
<text x="395.0" y="368" text-anchor="middle" font-size="13" font-weight="bold" fill="#333">incremental-20B</text>
<line x1="504" y1="262.5" x2="622" y2="262.5" stroke="#e0e0e0" stroke-width="0.5"/>
<line x1="504" y1="175.0" x2="622" y2="175.0" stroke="#e0e0e0" stroke-width="0.5"/>
<line x1="504" y1="87.5" x2="622" y2="87.5" stroke="#e0e0e0" stroke-width="0.5"/>
<line x1="504" y1="0.0" x2="622" y2="0.0" stroke="#e0e0e0" stroke-width="0.5"/>
<text x="500.0" y="4.0" text-anchor="end" font-size="10" fill="#999">19k</text>
<rect x="504.0" y="45.7" width="22" height="304.3" fill="#f28e2b" rx="1"/>
<text x="515.0" y="42.7" text-anchor="middle" font-size="9" fill="#333">16k</text>
<rect x="552.0" y="46.8" width="22" height="303.2" fill="#e15759" rx="1"/>
<text x="563.0" y="43.8" text-anchor="middle" font-size="9" fill="#333">16k</text>
<rect x="600.0" y="56.6" width="22" height="293.4" fill="#4e79a7" rx="1"/>
<text x="611.0" y="53.6" text-anchor="middle" font-size="9" fill="#333">16k</text>
<text x="563.0" y="368" text-anchor="middle" font-size="13" font-weight="bold" fill="#333">commits-10K</text>
<line x1="672" y1="262.5" x2="790" y2="262.5" stroke="#e0e0e0" stroke-width="0.5"/>
<line x1="672" y1="175.0" x2="790" y2="175.0" stroke="#e0e0e0" stroke-width="0.5"/>
<line x1="672" y1="87.5" x2="790" y2="87.5" stroke="#e0e0e0" stroke-width="0.5"/>
<line x1="672" y1="0.0" x2="790" y2="0.0" stroke="#e0e0e0" stroke-width="0.5"/>
<text x="668.0" y="4.0" text-anchor="end" font-size="10" fill="#999">4.5M</text>
<rect x="672.0" y="309.0" width="22" height="41.0" fill="#f28e2b" rx="1"/>
<text x="683.0" y="306.0" text-anchor="middle" font-size="9" fill="#333">523k</text>
<rect x="720.0" y="306.7" width="22" height="43.3" fill="#e15759" rx="1"/>
<text x="731.0" y="303.7" text-anchor="middle" font-size="9" fill="#333">553k</text>
<rect x="768.0" y="45.7" width="22" height="304.3" fill="#4e79a7" rx="1"/>
<text x="779.0" y="42.7" text-anchor="middle" font-size="9" fill="#333">3.9M</text>
<text x="731.0" y="368" text-anchor="middle" font-size="13" font-weight="bold" fill="#333">reads-10K</text>
<line x1="840" y1="262.5" x2="958" y2="262.5" stroke="#e0e0e0" stroke-width="0.5"/>
<line x1="840" y1="175.0" x2="958" y2="175.0" stroke="#e0e0e0" stroke-width="0.5"/>
<line x1="840" y1="87.5" x2="958" y2="87.5" stroke="#e0e0e0" stroke-width="0.5"/>
<line x1="840" y1="0.0" x2="958" y2="0.0" stroke="#e0e0e0" stroke-width="0.5"/>
<text x="836.0" y="4.0" text-anchor="end" font-size="10" fill="#999">4k</text>
<rect x="840.0" y="268.1" width="22" height="81.9" fill="#f28e2b" rx="1"/>
<text x="851.0" y="265.1" text-anchor="middle" font-size="9" fill="#333">852</text>
<rect x="888.0" y="229.9" width="22" height="120.1" fill="#e15759" rx="1"/>
<text x="899.0" y="226.9" text-anchor="middle" font-size="9" fill="#333">1k</text>
<rect x="936.0" y="45.7" width="22" height="304.3" fill="#4e79a7" rx="1"/>
<text x="947.0" y="42.7" text-anchor="middle" font-size="9" fill="#333">3k</text>
<text x="899.0" y="368" text-anchor="middle" font-size="13" font-weight="bold" fill="#333">incremental-10K</text>
<line x1="1008" y1="262.5" x2="1126" y2="262.5" stroke="#e0e0e0" stroke-width="0.5"/>
<line x1="1008" y1="175.0" x2="1126" y2="175.0" stroke="#e0e0e0" stroke-width="0.5"/>
<line x1="1008" y1="87.5" x2="1126" y2="87.5" stroke="#e0e0e0" stroke-width="0.5"/>
<line x1="1008" y1="0.0" x2="1126" y2="0.0" stroke="#e0e0e0" stroke-width="0.5"/>
<text x="1004.0" y="4.0" text-anchor="end" font-size="10" fill="#999">209k</text>
<rect x="1032.0" y="58.9" width="22" height="291.1" fill="#f28e2b" rx="1"/>
<text x="1043.0" y="55.9" text-anchor="middle" font-size="9" fill="#333">174k</text>
<rect x="1080.0" y="45.7" width="22" height="304.3" fill="#e15759" rx="1"/>
<text x="1091.0" y="42.7" text-anchor="middle" font-size="9" fill="#333">182k</text>
<rect x="1104.0" y="213.8" width="22" height="136.2" fill="#4e79a7" rx="1"/>
<text x="1115.0" y="210.8" text-anchor="middle" font-size="9" fill="#333">81k</text>
<text x="1067.0" y="368" text-anchor="middle" font-size="13" font-weight="bold" fill="#333">tezos-10310commits</text>
<line x1="0" y1="350" x2="1126" y2="350" stroke="#333" stroke-width="1"/>
</g>
<g transform="translate(100,440)">
<rect x="0" y="0" width="14" height="14" fill="#f28e2b" rx="2"/>
<text x="18" y="12" font-size="13" fill="#333">Irmin-Lwt (memory)</text>
<rect x="200" y="0" width="14" height="14" fill="#f28e2b" rx="2"/>
<text x="218" y="12" font-size="13" fill="#333">Irmin-Lwt (pack-mem)</text>
<rect x="400" y="0" width="14" height="14" fill="#e15759" rx="2"/>
<text x="418" y="12" font-size="13" fill="#333">Irmin-Eio (memory)</text>
<rect x="600" y="0" width="14" height="14" fill="#e15759" rx="2"/>
<text x="618" y="12" font-size="13" fill="#333">Irmin-Eio (pack-mem)</text>
<rect x="0" y="24" width="14" height="14" fill="#4e79a7" rx="2"/>
<text x="18" y="36" font-size="13" fill="#333">Irmini (memory)</text>
</g>
</svg>