<svg xmlns="http://www.w3.org/2000/svg" width="556" height="580" font-family="system-ui, sans-serif" font-size="11">
<rect width="556" height="580" fill="white"/>
<text x="278.0" y="28" text-anchor="middle" font-size="16" font-weight="bold">Memory backends — ops/s comparison</text>
<g transform="translate(120,60)">
<text x="-85" y="200.0" text-anchor="middle" font-size="12" fill="#333" transform="rotate(-90,-85,200.0)">ops/s</text>
<line x1="0" y1="300.0" x2="64" y2="300.0" stroke="#e0e0e0" stroke-width="0.5"/>
<line x1="0" y1="200.0" x2="64" y2="200.0" stroke="#e0e0e0" stroke-width="0.5"/>
<line x1="0" y1="100.0" x2="64" y2="100.0" stroke="#e0e0e0" stroke-width="0.5"/>
<line x1="0" y1="0.0" x2="64" y2="0.0" stroke="#e0e0e0" stroke-width="0.5"/>
<text x="-4.0" y="4.0" text-anchor="end" font-size="8" fill="#999">190k</text>
<rect x="0.0" y="66.8" width="20" height="333.2" fill="#e15759" rx="1"/>
<text x="10.0" y="63.8" text-anchor="middle" font-size="7" fill="#333">158k</text>
<rect x="22.0" y="52.2" width="20" height="347.8" fill="#f28e2b" rx="1"/>
<text x="32.0" y="49.2" text-anchor="middle" font-size="7" fill="#333">165k</text>
<rect x="44.0" y="226.7" width="20" height="173.3" fill="#4e79a7" rx="1"/>
<text x="54.0" y="223.7" text-anchor="middle" font-size="7" fill="#333">82k</text>
<text x="32.0" y="416" text-anchor="middle" font-size="11" font-weight="bold" fill="#333">commits</text>
<line x1="114" y1="300.0" x2="178" y2="300.0" stroke="#e0e0e0" stroke-width="0.5"/>
<line x1="114" y1="200.0" x2="178" y2="200.0" stroke="#e0e0e0" stroke-width="0.5"/>
<line x1="114" y1="100.0" x2="178" y2="100.0" stroke="#e0e0e0" stroke-width="0.5"/>
<line x1="114" y1="0.0" x2="178" y2="0.0" stroke="#e0e0e0" stroke-width="0.5"/>
<text x="110.0" y="4.0" text-anchor="end" font-size="8" fill="#999">1.7M</text>
<rect x="114.0" y="83.3" width="20" height="316.7" fill="#e15759" rx="1"/>
<text x="124.0" y="80.3" text-anchor="middle" font-size="7" fill="#333">1.3M</text>
<rect x="136.0" y="106.4" width="20" height="293.6" fill="#f28e2b" rx="1"/>
<text x="146.0" y="103.4" text-anchor="middle" font-size="7" fill="#333">1.3M</text>
<rect x="158.0" y="52.2" width="20" height="347.8" fill="#4e79a7" rx="1"/>
<text x="168.0" y="49.2" text-anchor="middle" font-size="7" fill="#333">1.5M</text>
<text x="146.0" y="416" text-anchor="middle" font-size="11" font-weight="bold" fill="#333">reads</text>
<line x1="228" y1="300.0" x2="292" y2="300.0" stroke="#e0e0e0" stroke-width="0.5"/>
<line x1="228" y1="200.0" x2="292" y2="200.0" stroke="#e0e0e0" stroke-width="0.5"/>
<line x1="228" y1="100.0" x2="292" y2="100.0" stroke="#e0e0e0" stroke-width="0.5"/>
<line x1="228" y1="0.0" x2="292" y2="0.0" stroke="#e0e0e0" stroke-width="0.5"/>
<text x="224.0" y="4.0" text-anchor="end" font-size="8" fill="#999">14k</text>
<rect x="228.0" y="318.4" width="20" height="81.6" fill="#e15759" rx="1"/>
<text x="238.0" y="315.4" text-anchor="middle" font-size="7" fill="#333">3k</text>
<rect x="250.0" y="320.7" width="20" height="79.3" fill="#f28e2b" rx="1"/>
<text x="260.0" y="317.7" text-anchor="middle" font-size="7" fill="#333">3k</text>
<rect x="272.0" y="52.2" width="20" height="347.8" fill="#4e79a7" rx="1"/>
<text x="282.0" y="49.2" text-anchor="middle" font-size="7" fill="#333">12k</text>
<text x="260.0" y="416" text-anchor="middle" font-size="11" font-weight="bold" fill="#333">incremental</text>
<line x1="342" y1="300.0" x2="406" y2="300.0" stroke="#e0e0e0" stroke-width="0.5"/>
<line x1="342" y1="200.0" x2="406" y2="200.0" stroke="#e0e0e0" stroke-width="0.5"/>
<line x1="342" y1="100.0" x2="406" y2="100.0" stroke="#e0e0e0" stroke-width="0.5"/>
<line x1="342" y1="0.0" x2="406" y2="0.0" stroke="#e0e0e0" stroke-width="0.5"/>
<text x="338.0" y="4.0" text-anchor="end" font-size="8" fill="#999">21k</text>
<rect x="342.0" y="113.4" width="20" height="286.6" fill="#e15759" rx="1"/>
<text x="352.0" y="110.4" text-anchor="middle" font-size="7" fill="#333">15k</text>
<rect x="364.0" y="100.6" width="20" height="299.4" fill="#f28e2b" rx="1"/>
<text x="374.0" y="97.6" text-anchor="middle" font-size="7" fill="#333">16k</text>
<rect x="386.0" y="52.2" width="20" height="347.8" fill="#4e79a7" rx="1"/>
<text x="396.0" y="49.2" text-anchor="middle" font-size="7" fill="#333">18k</text>
<text x="374.0" y="416" text-anchor="middle" font-size="11" font-weight="bold" fill="#333">large-values</text>
<line x1="0" y1="400" x2="406" y2="400" stroke="#333" stroke-width="1"/>
</g>
<g transform="translate(120,500)">
<rect x="0" y="0" width="12" height="12" fill="#e15759" rx="2"/>
<text x="16" y="10" font-size="10" fill="#333">Irmin-Eio (memory)</text>
<rect x="220" y="0" width="12" height="12" fill="#f28e2b" rx="2"/>
<text x="236" y="10" font-size="10" fill="#333">Irmin-Lwt (memory)</text>
<rect x="440" y="0" width="12" height="12" fill="#4e79a7" rx="2"/>
<text x="456" y="10" font-size="10" fill="#333">Irmini (memory)</text>
</g>
</svg>