<svg xmlns="http://www.w3.org/2000/svg" width="1660" height="600" font-family="system-ui, sans-serif" font-size="11">
<rect width="1660" height="600" fill="white"/>
<defs><pattern id="Irminipinline_memory" width="4" height="4" patternUnits="userSpaceOnUse" patternTransform="rotate(45)"><rect width="4" height="4" fill="#7eadd4"/><line x1="0" y1="0" x2="0" y2="4" stroke="white" stroke-width="1" opacity="0.4"/></pattern></defs>
<defs><pattern id="Irminipcache_memory" width="4" height="4" patternUnits="userSpaceOnUse"><rect width="4" height="4" fill="#a3c4e0"/><line x1="0" y1="2" x2="4" y2="2" stroke="white" stroke-width="1" opacity="0.5"/></pattern></defs>
<defs><pattern id="Irminipinode_memory" width="3" height="3" patternUnits="userSpaceOnUse"><rect width="3" height="3" fill="#2a5f8a"/><circle cx="1.5" cy="1.5" r="0.8" fill="white" opacity="0.5"/></pattern></defs>
<defs><pattern id="Irminipall_memory" width="4" height="4" patternUnits="userSpaceOnUse"><rect width="4" height="4" fill="#1a3d5c"/><line x1="0" y1="0" x2="4" y2="4" stroke="white" stroke-width="0.8" opacity="0.5"/><line x1="0" y1="4" x2="4" y2="0" stroke="white" stroke-width="0.8" opacity="0.5"/></pattern></defs>
<defs><pattern id="Irminipinline_disk" width="4" height="4" patternUnits="userSpaceOnUse" patternTransform="rotate(45)"><rect width="4" height="4" fill="#8ed485"/><line x1="0" y1="0" x2="0" y2="4" stroke="white" stroke-width="1" opacity="0.4"/></pattern></defs>
<defs><pattern id="Irminipcache_disk" width="4" height="4" patternUnits="userSpaceOnUse"><rect width="4" height="4" fill="#b8e8ab"/><line x1="0" y1="2" x2="4" y2="2" stroke="white" stroke-width="1" opacity="0.5"/></pattern></defs>
<defs><pattern id="Irminipinline_lavyek" width="4" height="4" patternUnits="userSpaceOnUse" patternTransform="rotate(45)"><rect width="4" height="4" fill="#c9a48e"/><line x1="0" y1="0" x2="0" y2="4" stroke="white" stroke-width="1" opacity="0.4"/></pattern></defs>
<defs><pattern id="Irminipcache_lavyek" width="4" height="4" patternUnits="userSpaceOnUse"><rect width="4" height="4" fill="#dfc4b5"/><line x1="0" y1="2" x2="4" y2="2" stroke="white" stroke-width="1" opacity="0.5"/></pattern></defs>
<defs><pattern id="Irminipall_lavyek" width="4" height="4" patternUnits="userSpaceOnUse"><rect width="4" height="4" fill="#6b4430"/><line x1="0" y1="0" x2="4" y2="4" stroke="white" stroke-width="0.8" opacity="0.5"/><line x1="0" y1="4" x2="4" y2="0" stroke="white" stroke-width="0.8" opacity="0.5"/></pattern></defs>
<text x="830.0" y="28" text-anchor="middle" font-size="16" font-weight="bold">Benchmark comparison (ops/s, linear scale)</text>
<text x="830.0" y="46" text-anchor="middle" font-size="11" fill="#666">50 commits × 500 adds, depth 10, 5000 reads — 100-byte values (30-byte for +inline, 10 KiB for large-values)</text>
<g transform="translate(120,60)">
<text x="-85" y="200.0" text-anchor="middle" font-size="12" fill="#333" transform="rotate(-90,-85,200.0)">ops/s</text>
<line x1="0" y1="300.0" x2="262" y2="300.0" stroke="#e0e0e0" stroke-width="0.5"/>
<line x1="0" y1="200.0" x2="262" y2="200.0" stroke="#e0e0e0" stroke-width="0.5"/>
<line x1="0" y1="100.0" x2="262" y2="100.0" stroke="#e0e0e0" stroke-width="0.5"/>
<line x1="0" y1="0.0" x2="262" y2="0.0" stroke="#e0e0e0" stroke-width="0.5"/>
<text x="-4.0" y="4.0" text-anchor="end" font-size="8" fill="#999">182k</text>
<rect x="0.0" y="398.9" width="14" height="1.1" fill="#4e79a7" rx="1"/>
<text x="7.0" y="395.9" text-anchor="middle" font-size="7" fill="#333">519</text>
<rect x="16.0" y="120.8" width="14" height="279.2" fill="url(#Irminipinline_memory)" rx="1"/>
<text x="23.0" y="117.8" text-anchor="middle" font-size="7" fill="#333">127k</text>
<rect x="32.0" y="398.9" width="14" height="1.1" fill="url(#Irminipcache_memory)" rx="1"/>
<text x="39.0" y="395.9" text-anchor="middle" font-size="7" fill="#333">512</text>
<rect x="48.0" y="148.4" width="14" height="251.6" fill="url(#Irminipinode_memory)" rx="1"/>
<text x="55.0" y="145.4" text-anchor="middle" font-size="7" fill="#333">114k</text>
<rect x="64.0" y="219.1" width="14" height="180.9" fill="url(#Irminipall_memory)" rx="1"/>
<text x="71.0" y="216.1" text-anchor="middle" font-size="7" fill="#333">82k</text>
<rect x="80.0" y="399.1" width="14" height="0.9" fill="#59a14f" rx="1"/>
<text x="87.0" y="396.1" text-anchor="middle" font-size="7" fill="#333">429</text>
<rect x="96.0" y="389.8" width="14" height="10.2" fill="url(#Irminipinline_disk)" rx="1"/>
<text x="103.0" y="386.8" text-anchor="middle" font-size="7" fill="#333">5k</text>
<rect x="112.0" y="399.0" width="14" height="1.0" fill="url(#Irminipcache_disk)" rx="1"/>
<text x="119.0" y="396.0" text-anchor="middle" font-size="7" fill="#333">435</text>
<rect x="128.0" y="399.0" width="14" height="1.0" fill="#9c755f" rx="1"/>
<text x="135.0" y="396.0" text-anchor="middle" font-size="7" fill="#333">457</text>
<rect x="144.0" y="148.7" width="14" height="251.3" fill="url(#Irminipinline_lavyek)" rx="1"/>
<text x="151.0" y="145.7" text-anchor="middle" font-size="7" fill="#333">114k</text>
<rect x="160.0" y="399.0" width="14" height="1.0" fill="url(#Irminipcache_lavyek)" rx="1"/>
<text x="167.0" y="396.0" text-anchor="middle" font-size="7" fill="#333">471</text>
<rect x="176.0" y="253.9" width="14" height="146.1" fill="url(#Irminipall_lavyek)" rx="1"/>
<text x="183.0" y="250.9" text-anchor="middle" font-size="7" fill="#333">66k</text>
<rect x="200.0" y="52.2" width="14" height="347.8" fill="#f28e2b" rx="1"/>
<text x="207.0" y="49.2" text-anchor="middle" font-size="7" fill="#333">158k</text>
<rect x="216.0" y="298.2" width="14" height="101.8" fill="#e15759" rx="1"/>
<text x="223.0" y="295.2" text-anchor="middle" font-size="7" fill="#333">46k</text>
<rect x="232.0" y="318.9" width="14" height="81.1" fill="#76b7b2" rx="1"/>
<text x="239.0" y="315.9" text-anchor="middle" font-size="7" fill="#333">37k</text>
<rect x="248.0" y="395.2" width="14" height="4.8" fill="#b07aa1" rx="1"/>
<text x="255.0" y="392.2" text-anchor="middle" font-size="7" fill="#333">2k</text>
<line x1="196.0" y1="0" x2="196.0" y2="400" stroke="#ccc" stroke-width="0.5" stroke-dasharray="3,3"/>
<text x="131.0" y="416" text-anchor="middle" font-size="11" font-weight="bold" fill="#333">commits</text>
<line x1="312" y1="300.0" x2="574" y2="300.0" stroke="#e0e0e0" stroke-width="0.5"/>
<line x1="312" y1="200.0" x2="574" y2="200.0" stroke="#e0e0e0" stroke-width="0.5"/>
<line x1="312" y1="100.0" x2="574" y2="100.0" stroke="#e0e0e0" stroke-width="0.5"/>
<line x1="312" y1="0.0" x2="574" y2="0.0" stroke="#e0e0e0" stroke-width="0.5"/>
<text x="308.0" y="4.0" text-anchor="end" font-size="8" fill="#999">1.7M</text>
<rect x="312.0" y="397.8" width="14" height="2.2" fill="#4e79a7" rx="1"/>
<text x="319.0" y="394.8" text-anchor="middle" font-size="7" fill="#333">10k</text>
<rect x="328.0" y="395.4" width="14" height="4.6" fill="url(#Irminipinline_memory)" rx="1"/>
<text x="335.0" y="392.4" text-anchor="middle" font-size="7" fill="#333">20k</text>
<rect x="344.0" y="396.9" width="14" height="3.1" fill="url(#Irminipcache_memory)" rx="1"/>
<text x="351.0" y="393.9" text-anchor="middle" font-size="7" fill="#333">13k</text>
<rect x="360.0" y="351.8" width="14" height="48.2" fill="url(#Irminipinode_memory)" rx="1"/>
<text x="367.0" y="348.8" text-anchor="middle" font-size="7" fill="#333">205k</text>
<rect x="376.0" y="52.2" width="14" height="347.8" fill="url(#Irminipall_memory)" rx="1"/>
<text x="383.0" y="49.2" text-anchor="middle" font-size="7" fill="#333">1.5M</text>
<rect x="392.0" y="399.1" width="14" height="0.9" fill="#59a14f" rx="1"/>
<text x="399.0" y="396.1" text-anchor="middle" font-size="7" fill="#333">4k</text>
<rect x="408.0" y="398.8" width="14" height="1.2" fill="url(#Irminipinline_disk)" rx="1"/>
<text x="415.0" y="395.8" text-anchor="middle" font-size="7" fill="#333">5k</text>
<rect x="424.0" y="396.7" width="14" height="3.3" fill="url(#Irminipcache_disk)" rx="1"/>
<text x="431.0" y="393.7" text-anchor="middle" font-size="7" fill="#333">14k</text>
<rect x="440.0" y="398.0" width="14" height="2.0" fill="#9c755f" rx="1"/>
<text x="447.0" y="395.0" text-anchor="middle" font-size="7" fill="#333">8k</text>
<rect x="456.0" y="396.3" width="14" height="3.7" fill="url(#Irminipinline_lavyek)" rx="1"/>
<text x="463.0" y="393.3" text-anchor="middle" font-size="7" fill="#333">16k</text>
<rect x="472.0" y="397.0" width="14" height="3.0" fill="url(#Irminipcache_lavyek)" rx="1"/>
<text x="479.0" y="394.0" text-anchor="middle" font-size="7" fill="#333">13k</text>
<rect x="488.0" y="93.9" width="14" height="306.1" fill="url(#Irminipall_lavyek)" rx="1"/>
<text x="495.0" y="90.9" text-anchor="middle" font-size="7" fill="#333">1.3M</text>
<rect x="512.0" y="83.3" width="14" height="316.7" fill="#f28e2b" rx="1"/>
<text x="519.0" y="80.3" text-anchor="middle" font-size="7" fill="#333">1.3M</text>
<rect x="528.0" y="67.3" width="14" height="332.7" fill="#e15759" rx="1"/>
<text x="535.0" y="64.3" text-anchor="middle" font-size="7" fill="#333">1.4M</text>
<rect x="544.0" y="353.0" width="14" height="47.0" fill="#76b7b2" rx="1"/>
<text x="551.0" y="350.0" text-anchor="middle" font-size="7" fill="#333">200k</text>
<rect x="560.0" y="365.9" width="14" height="34.1" fill="#b07aa1" rx="1"/>
<text x="567.0" y="362.9" text-anchor="middle" font-size="7" fill="#333">145k</text>
<line x1="508.0" y1="0" x2="508.0" y2="400" stroke="#ccc" stroke-width="0.5" stroke-dasharray="3,3"/>
<text x="443.0" y="416" text-anchor="middle" font-size="11" font-weight="bold" fill="#333">reads</text>
<line x1="624" y1="300.0" x2="886" y2="300.0" stroke="#e0e0e0" stroke-width="0.5"/>
<line x1="624" y1="200.0" x2="886" y2="200.0" stroke="#e0e0e0" stroke-width="0.5"/>
<line x1="624" y1="100.0" x2="886" y2="100.0" stroke="#e0e0e0" stroke-width="0.5"/>
<line x1="624" y1="0.0" x2="886" y2="0.0" stroke="#e0e0e0" stroke-width="0.5"/>
<text x="620.0" y="4.0" text-anchor="end" font-size="8" fill="#999">14k</text>
<rect x="624.0" y="344.1" width="14" height="55.9" fill="#4e79a7" rx="1"/>
<text x="631.0" y="341.1" text-anchor="middle" font-size="7" fill="#333">2k</text>
<rect x="640.0" y="339.7" width="14" height="60.3" fill="url(#Irminipinline_memory)" rx="1"/>
<text x="647.0" y="336.7" text-anchor="middle" font-size="7" fill="#333">2k</text>
<rect x="656.0" y="335.4" width="14" height="64.6" fill="url(#Irminipcache_memory)" rx="1"/>
<text x="663.0" y="332.4" text-anchor="middle" font-size="7" fill="#333">2k</text>
<rect x="672.0" y="131.5" width="14" height="268.5" fill="url(#Irminipinode_memory)" rx="1"/>
<text x="679.0" y="128.5" text-anchor="middle" font-size="7" fill="#333">9k</text>
<rect x="688.0" y="52.2" width="14" height="347.8" fill="url(#Irminipall_memory)" rx="1"/>
<text x="695.0" y="49.2" text-anchor="middle" font-size="7" fill="#333">12k</text>
<rect x="704.0" y="399.7" width="14" height="0.3" fill="#59a14f" rx="1"/>
<text x="711.0" y="396.7" text-anchor="middle" font-size="7" fill="#333">10</text>
<rect x="720.0" y="399.7" width="14" height="0.3" fill="url(#Irminipinline_disk)" rx="1"/>
<text x="727.0" y="396.7" text-anchor="middle" font-size="7" fill="#333">11</text>
<rect x="736.0" y="399.7" width="14" height="0.3" fill="url(#Irminipcache_disk)" rx="1"/>
<text x="743.0" y="396.7" text-anchor="middle" font-size="7" fill="#333">10</text>
<rect x="752.0" y="359.2" width="14" height="40.8" fill="#9c755f" rx="1"/>
<text x="759.0" y="356.2" text-anchor="middle" font-size="7" fill="#333">1k</text>
<rect x="768.0" y="363.4" width="14" height="36.6" fill="url(#Irminipinline_lavyek)" rx="1"/>
<text x="775.0" y="360.4" text-anchor="middle" font-size="7" fill="#333">1k</text>
<rect x="784.0" y="371.5" width="14" height="28.5" fill="url(#Irminipcache_lavyek)" rx="1"/>
<text x="791.0" y="368.5" text-anchor="middle" font-size="7" fill="#333">1k</text>
<rect x="800.0" y="159.8" width="14" height="240.2" fill="url(#Irminipall_lavyek)" rx="1"/>
<text x="807.0" y="156.8" text-anchor="middle" font-size="7" fill="#333">8k</text>
<rect x="824.0" y="318.4" width="14" height="81.6" fill="#f28e2b" rx="1"/>
<text x="831.0" y="315.4" text-anchor="middle" font-size="7" fill="#333">3k</text>
<rect x="840.0" y="342.3" width="14" height="57.7" fill="#e15759" rx="1"/>
<text x="847.0" y="339.3" text-anchor="middle" font-size="7" fill="#333">2k</text>
<rect x="856.0" y="394.4" width="14" height="5.6" fill="#76b7b2" rx="1"/>
<text x="863.0" y="391.4" text-anchor="middle" font-size="7" fill="#333">196</text>
<rect x="872.0" y="395.4" width="14" height="4.6" fill="#b07aa1" rx="1"/>
<text x="879.0" y="392.4" text-anchor="middle" font-size="7" fill="#333">161</text>
<line x1="820.0" y1="0" x2="820.0" y2="400" stroke="#ccc" stroke-width="0.5" stroke-dasharray="3,3"/>
<text x="755.0" y="416" text-anchor="middle" font-size="11" font-weight="bold" fill="#333">incremental</text>
<line x1="936" y1="300.0" x2="1198" y2="300.0" stroke="#e0e0e0" stroke-width="0.5"/>
<line x1="936" y1="200.0" x2="1198" y2="200.0" stroke="#e0e0e0" stroke-width="0.5"/>
<line x1="936" y1="100.0" x2="1198" y2="100.0" stroke="#e0e0e0" stroke-width="0.5"/>
<line x1="936" y1="0.0" x2="1198" y2="0.0" stroke="#e0e0e0" stroke-width="0.5"/>
<text x="932.0" y="4.0" text-anchor="end" font-size="8" fill="#999">21k</text>
<rect x="936.0" y="371.1" width="14" height="28.9" fill="#4e79a7" rx="1"/>
<text x="943.0" y="368.1" text-anchor="middle" font-size="7" fill="#333">2k</text>
<rect x="952.0" y="370.3" width="14" height="29.7" fill="url(#Irminipinline_memory)" rx="1"/>
<text x="959.0" y="367.3" text-anchor="middle" font-size="7" fill="#333">2k</text>
<rect x="968.0" y="372.2" width="14" height="27.8" fill="url(#Irminipcache_memory)" rx="1"/>
<text x="975.0" y="369.2" text-anchor="middle" font-size="7" fill="#333">1k</text>
<rect x="984.0" y="52.2" width="14" height="347.8" fill="url(#Irminipinode_memory)" rx="1"/>
<text x="991.0" y="49.2" text-anchor="middle" font-size="7" fill="#333">18k</text>
<rect x="1000.0" y="59.3" width="14" height="340.7" fill="url(#Irminipall_memory)" rx="1"/>
<text x="1007.0" y="56.3" text-anchor="middle" font-size="7" fill="#333">18k</text>
<rect x="1016.0" y="398.3" width="14" height="1.7" fill="#59a14f" rx="1"/>
<text x="1023.0" y="395.3" text-anchor="middle" font-size="7" fill="#333">91</text>
<rect x="1032.0" y="398.3" width="14" height="1.7" fill="url(#Irminipinline_disk)" rx="1"/>
<text x="1039.0" y="395.3" text-anchor="middle" font-size="7" fill="#333">92</text>
<rect x="1048.0" y="398.2" width="14" height="1.8" fill="url(#Irminipcache_disk)" rx="1"/>
<text x="1055.0" y="395.2" text-anchor="middle" font-size="7" fill="#333">94</text>
<rect x="1064.0" y="375.7" width="14" height="24.3" fill="#9c755f" rx="1"/>
<text x="1071.0" y="372.7" text-anchor="middle" font-size="7" fill="#333">1k</text>
<rect x="1080.0" y="375.5" width="14" height="24.5" fill="url(#Irminipinline_lavyek)" rx="1"/>
<text x="1087.0" y="372.5" text-anchor="middle" font-size="7" fill="#333">1k</text>
<rect x="1096.0" y="376.2" width="14" height="23.8" fill="url(#Irminipcache_lavyek)" rx="1"/>
<text x="1103.0" y="373.2" text-anchor="middle" font-size="7" fill="#333">1k</text>
<rect x="1112.0" y="209.9" width="14" height="190.1" fill="url(#Irminipall_lavyek)" rx="1"/>
<text x="1119.0" y="206.9" text-anchor="middle" font-size="7" fill="#333">10k</text>
<rect x="1136.0" y="119.3" width="14" height="280.7" fill="#f28e2b" rx="1"/>
<text x="1143.0" y="116.3" text-anchor="middle" font-size="7" fill="#333">15k</text>
<rect x="1152.0" y="255.9" width="14" height="144.1" fill="#e15759" rx="1"/>
<text x="1159.0" y="252.9" text-anchor="middle" font-size="7" fill="#333">8k</text>
<rect x="1168.0" y="349.2" width="14" height="50.8" fill="#76b7b2" rx="1"/>
<text x="1175.0" y="346.2" text-anchor="middle" font-size="7" fill="#333">3k</text>
<rect x="1184.0" y="370.0" width="14" height="30.0" fill="#b07aa1" rx="1"/>
<text x="1191.0" y="367.0" text-anchor="middle" font-size="7" fill="#333">2k</text>
<line x1="1132.0" y1="0" x2="1132.0" y2="400" stroke="#ccc" stroke-width="0.5" stroke-dasharray="3,3"/>
<text x="1067.0" y="416" text-anchor="middle" font-size="11" font-weight="bold" fill="#333">large-values</text>
<line x1="1248" y1="300.0" x2="1510" y2="300.0" stroke="#e0e0e0" stroke-width="0.5"/>
<line x1="1248" y1="200.0" x2="1510" y2="200.0" stroke="#e0e0e0" stroke-width="0.5"/>
<line x1="1248" y1="100.0" x2="1510" y2="100.0" stroke="#e0e0e0" stroke-width="0.5"/>
<line x1="1248" y1="0.0" x2="1510" y2="0.0" stroke="#e0e0e0" stroke-width="0.5"/>
<text x="1244.0" y="4.0" text-anchor="end" font-size="8" fill="#999">879k</text>
<rect x="1328.0" y="399.9" width="14" height="0.1" fill="#59a14f" rx="1"/>
<text x="1335.0" y="396.9" text-anchor="middle" font-size="7" fill="#333">263</text>
<rect x="1344.0" y="399.9" width="14" height="0.1" fill="url(#Irminipinline_disk)" rx="1"/>
<text x="1351.0" y="396.9" text-anchor="middle" font-size="7" fill="#333">264</text>
<rect x="1360.0" y="399.9" width="14" height="0.1" fill="url(#Irminipcache_disk)" rx="1"/>
<text x="1367.0" y="396.9" text-anchor="middle" font-size="7" fill="#333">266</text>
<rect x="1376.0" y="196.6" width="14" height="203.4" fill="#9c755f" rx="1"/>
<text x="1383.0" y="193.6" text-anchor="middle" font-size="7" fill="#333">447k</text>
<rect x="1392.0" y="212.4" width="14" height="187.6" fill="url(#Irminipinline_lavyek)" rx="1"/>
<text x="1399.0" y="209.4" text-anchor="middle" font-size="7" fill="#333">412k</text>
<rect x="1408.0" y="87.9" width="14" height="312.1" fill="url(#Irminipcache_lavyek)" rx="1"/>
<text x="1415.0" y="84.9" text-anchor="middle" font-size="7" fill="#333">686k</text>
<rect x="1424.0" y="52.2" width="14" height="347.8" fill="url(#Irminipall_lavyek)" rx="1"/>
<text x="1431.0" y="49.2" text-anchor="middle" font-size="7" fill="#333">765k</text>
<rect x="1464.0" y="399.3" width="14" height="0.7" fill="#e15759" rx="1"/>
<text x="1471.0" y="396.3" text-anchor="middle" font-size="7" fill="#333">2k</text>
<line x1="1444.0" y1="0" x2="1444.0" y2="400" stroke="#ccc" stroke-width="0.5" stroke-dasharray="3,3"/>
<text x="1379.0" y="416" text-anchor="middle" font-size="11" font-weight="bold" fill="#333">concurrent</text>
<line x1="0" y1="400" x2="1510" y2="400" stroke="#333" stroke-width="1"/>
</g>
<g transform="translate(120,500)">
<rect x="0" y="0" width="12" height="12" fill="#4e79a7" rx="2"/>
<text x="16" y="10" font-size="10" fill="#333">Irmini (memory)</text>
<rect x="190" y="0" width="12" height="12" fill="#59a14f" rx="2"/>
<text x="206" y="10" font-size="10" fill="#333">Irmini (disk)</text>
<rect x="380" y="0" width="12" height="12" fill="#9c755f" rx="2"/>
<text x="396" y="10" font-size="10" fill="#333">Irmini (lavyek)</text>
<rect x="570" y="0" width="12" height="12" fill="#1a3d5c" rx="2"/>
<text x="586" y="10" font-size="10" fill="#333">Irmini+all (memory)</text>
<rect x="0" y="20" width="12" height="12" fill="#6b4430" rx="2"/>
<text x="16" y="30" font-size="10" fill="#333">Irmini+all (lavyek)</text>
<rect x="190" y="20" width="12" height="12" fill="#f28e2b" rx="2"/>
<text x="206" y="30" font-size="10" fill="#333">Irmin (memory)</text>
<rect x="380" y="20" width="12" height="12" fill="#e15759" rx="2"/>
<text x="396" y="30" font-size="10" fill="#333">Irmin-pack</text>
<rect x="570" y="20" width="12" height="12" fill="#76b7b2" rx="2"/>
<text x="586" y="30" font-size="10" fill="#333">Irmin-fs</text>
<rect x="0" y="40" width="12" height="12" fill="#b07aa1" rx="2"/>
<text x="16" y="50" font-size="10" fill="#333">Irmin-git</text>
<text x="0" y="76" font-size="9" fill="#888" font-style="italic">Diagonal = +inline, horizontal = +cache, dots = +inode, cross-hatch = +all (inode+cache+inline)</text>
</g>
</svg>