<svg xmlns="http://www.w3.org/2000/svg" width="1380" height="600" font-family="system-ui, sans-serif" font-size="11">
<rect width="1380" height="600" fill="white"/>
<defs><pattern id="Irminipinline_memory" width="4" height="4" patternUnits="userSpaceOnUse" patternTransform="rotate(45)"><rect width="4" height="4" fill="#7eadd4"/><line x1="0" y1="0" x2="0" y2="4" stroke="white" stroke-width="1" opacity="0.4"/></pattern></defs>
<defs><pattern id="Irminipcache_memory" width="4" height="4" patternUnits="userSpaceOnUse"><rect width="4" height="4" fill="#a3c4e0"/><line x1="0" y1="2" x2="4" y2="2" stroke="white" stroke-width="1" opacity="0.5"/></pattern></defs>
<defs><pattern id="Irminipinline_disk" width="4" height="4" patternUnits="userSpaceOnUse" patternTransform="rotate(45)"><rect width="4" height="4" fill="#8ed485"/><line x1="0" y1="0" x2="0" y2="4" stroke="white" stroke-width="1" opacity="0.4"/></pattern></defs>
<defs><pattern id="Irminipcache_disk" width="4" height="4" patternUnits="userSpaceOnUse"><rect width="4" height="4" fill="#b8e8ab"/><line x1="0" y1="2" x2="4" y2="2" stroke="white" stroke-width="1" opacity="0.5"/></pattern></defs>
<defs><pattern id="Irminipinline_lavyek" width="4" height="4" patternUnits="userSpaceOnUse" patternTransform="rotate(45)"><rect width="4" height="4" fill="#c9a48e"/><line x1="0" y1="0" x2="0" y2="4" stroke="white" stroke-width="1" opacity="0.4"/></pattern></defs>
<defs><pattern id="Irminipcache_lavyek" width="4" height="4" patternUnits="userSpaceOnUse"><rect width="4" height="4" fill="#dfc4b5"/><line x1="0" y1="2" x2="4" y2="2" stroke="white" stroke-width="1" opacity="0.5"/></pattern></defs>
<text x="690.0" y="28" text-anchor="middle" font-size="16" font-weight="bold">Benchmark comparison (ops/s, linear scale)</text>
<text x="690.0" y="46" text-anchor="middle" font-size="11" fill="#666">50 commits × 500 adds, depth 10, 5000 reads — 100-byte values (30-byte for +inline, 10 KiB for large-values)</text>
<g transform="translate(120,60)">
<text x="-85" y="200.0" text-anchor="middle" font-size="12" fill="#333" transform="rotate(-90,-85,200.0)">ops/s</text>
<line x1="0" y1="300.0" x2="206" y2="300.0" stroke="#e0e0e0" stroke-width="0.5"/>
<line x1="0" y1="200.0" x2="206" y2="200.0" stroke="#e0e0e0" stroke-width="0.5"/>
<line x1="0" y1="100.0" x2="206" y2="100.0" stroke="#e0e0e0" stroke-width="0.5"/>
<line x1="0" y1="0.0" x2="206" y2="0.0" stroke="#e0e0e0" stroke-width="0.5"/>
<text x="-4.0" y="4.0" text-anchor="end" font-size="8" fill="#999">182k</text>
<rect x="0.0" y="398.9" width="14" height="1.1" fill="#4e79a7" rx="1"/>
<text x="7.0" y="395.9" text-anchor="middle" font-size="7" fill="#333">519</text>
<rect x="16.0" y="120.8" width="14" height="279.2" fill="url(#Irminipinline_memory)" rx="1"/>
<text x="23.0" y="117.8" text-anchor="middle" font-size="7" fill="#333">127k</text>
<rect x="32.0" y="398.9" width="14" height="1.1" fill="url(#Irminipcache_memory)" rx="1"/>
<text x="39.0" y="395.9" text-anchor="middle" font-size="7" fill="#333">512</text>
<rect x="48.0" y="399.1" width="14" height="0.9" fill="#59a14f" rx="1"/>
<text x="55.0" y="396.1" text-anchor="middle" font-size="7" fill="#333">429</text>
<rect x="64.0" y="389.8" width="14" height="10.2" fill="url(#Irminipinline_disk)" rx="1"/>
<text x="71.0" y="386.8" text-anchor="middle" font-size="7" fill="#333">5k</text>
<rect x="80.0" y="399.0" width="14" height="1.0" fill="url(#Irminipcache_disk)" rx="1"/>
<text x="87.0" y="396.0" text-anchor="middle" font-size="7" fill="#333">435</text>
<rect x="96.0" y="399.0" width="14" height="1.0" fill="#9c755f" rx="1"/>
<text x="103.0" y="396.0" text-anchor="middle" font-size="7" fill="#333">457</text>
<rect x="112.0" y="148.7" width="14" height="251.3" fill="url(#Irminipinline_lavyek)" rx="1"/>
<text x="119.0" y="145.7" text-anchor="middle" font-size="7" fill="#333">114k</text>
<rect x="128.0" y="399.0" width="14" height="1.0" fill="url(#Irminipcache_lavyek)" rx="1"/>
<text x="135.0" y="396.0" text-anchor="middle" font-size="7" fill="#333">471</text>
<rect x="144.0" y="52.2" width="14" height="347.8" fill="#f28e2b" rx="1"/>
<text x="151.0" y="49.2" text-anchor="middle" font-size="7" fill="#333">158k</text>
<rect x="160.0" y="298.2" width="14" height="101.8" fill="#e15759" rx="1"/>
<text x="167.0" y="295.2" text-anchor="middle" font-size="7" fill="#333">46k</text>
<rect x="176.0" y="318.9" width="14" height="81.1" fill="#76b7b2" rx="1"/>
<text x="183.0" y="315.9" text-anchor="middle" font-size="7" fill="#333">37k</text>
<rect x="192.0" y="395.2" width="14" height="4.8" fill="#b07aa1" rx="1"/>
<text x="199.0" y="392.2" text-anchor="middle" font-size="7" fill="#333">2k</text>
<text x="103.0" y="416" text-anchor="middle" font-size="11" font-weight="bold" fill="#333">commits</text>
<line x1="256" y1="300.0" x2="462" y2="300.0" stroke="#e0e0e0" stroke-width="0.5"/>
<line x1="256" y1="200.0" x2="462" y2="200.0" stroke="#e0e0e0" stroke-width="0.5"/>
<line x1="256" y1="100.0" x2="462" y2="100.0" stroke="#e0e0e0" stroke-width="0.5"/>
<line x1="256" y1="0.0" x2="462" y2="0.0" stroke="#e0e0e0" stroke-width="0.5"/>
<text x="252.0" y="4.0" text-anchor="end" font-size="8" fill="#999">1.6M</text>
<rect x="256.0" y="397.7" width="14" height="2.3" fill="#4e79a7" rx="1"/>
<text x="263.0" y="394.7" text-anchor="middle" font-size="7" fill="#333">10k</text>
<rect x="272.0" y="395.2" width="14" height="4.8" fill="url(#Irminipinline_memory)" rx="1"/>
<text x="279.0" y="392.2" text-anchor="middle" font-size="7" fill="#333">20k</text>
<rect x="288.0" y="396.7" width="14" height="3.3" fill="url(#Irminipcache_memory)" rx="1"/>
<text x="295.0" y="393.7" text-anchor="middle" font-size="7" fill="#333">13k</text>
<rect x="304.0" y="399.0" width="14" height="1.0" fill="#59a14f" rx="1"/>
<text x="311.0" y="396.0" text-anchor="middle" font-size="7" fill="#333">4k</text>
<rect x="320.0" y="398.8" width="14" height="1.2" fill="url(#Irminipinline_disk)" rx="1"/>
<text x="327.0" y="395.8" text-anchor="middle" font-size="7" fill="#333">5k</text>
<rect x="336.0" y="396.6" width="14" height="3.4" fill="url(#Irminipcache_disk)" rx="1"/>
<text x="343.0" y="393.6" text-anchor="middle" font-size="7" fill="#333">14k</text>
<rect x="352.0" y="398.0" width="14" height="2.0" fill="#9c755f" rx="1"/>
<text x="359.0" y="395.0" text-anchor="middle" font-size="7" fill="#333">8k</text>
<rect x="368.0" y="396.1" width="14" height="3.9" fill="url(#Irminipinline_lavyek)" rx="1"/>
<text x="375.0" y="393.1" text-anchor="middle" font-size="7" fill="#333">16k</text>
<rect x="384.0" y="396.9" width="14" height="3.1" fill="url(#Irminipcache_lavyek)" rx="1"/>
<text x="391.0" y="393.9" text-anchor="middle" font-size="7" fill="#333">13k</text>
<rect x="400.0" y="68.9" width="14" height="331.1" fill="#f28e2b" rx="1"/>
<text x="407.0" y="65.9" text-anchor="middle" font-size="7" fill="#333">1.3M</text>
<rect x="416.0" y="52.2" width="14" height="347.8" fill="#e15759" rx="1"/>
<text x="423.0" y="49.2" text-anchor="middle" font-size="7" fill="#333">1.4M</text>
<rect x="432.0" y="350.9" width="14" height="49.1" fill="#76b7b2" rx="1"/>
<text x="439.0" y="347.9" text-anchor="middle" font-size="7" fill="#333">200k</text>
<rect x="448.0" y="364.3" width="14" height="35.7" fill="#b07aa1" rx="1"/>
<text x="455.0" y="361.3" text-anchor="middle" font-size="7" fill="#333">145k</text>
<text x="359.0" y="416" text-anchor="middle" font-size="11" font-weight="bold" fill="#333">reads</text>
<line x1="512" y1="300.0" x2="718" y2="300.0" stroke="#e0e0e0" stroke-width="0.5"/>
<line x1="512" y1="200.0" x2="718" y2="200.0" stroke="#e0e0e0" stroke-width="0.5"/>
<line x1="512" y1="100.0" x2="718" y2="100.0" stroke="#e0e0e0" stroke-width="0.5"/>
<line x1="512" y1="0.0" x2="718" y2="0.0" stroke="#e0e0e0" stroke-width="0.5"/>
<text x="508.0" y="4.0" text-anchor="end" font-size="8" fill="#999">3k</text>
<rect x="512.0" y="161.9" width="14" height="238.1" fill="#4e79a7" rx="1"/>
<text x="519.0" y="158.9" text-anchor="middle" font-size="7" fill="#333">2k</text>
<rect x="528.0" y="143.1" width="14" height="256.9" fill="url(#Irminipinline_memory)" rx="1"/>
<text x="535.0" y="140.1" text-anchor="middle" font-size="7" fill="#333">2k</text>
<rect x="544.0" y="124.9" width="14" height="275.1" fill="url(#Irminipcache_memory)" rx="1"/>
<text x="551.0" y="121.9" text-anchor="middle" font-size="7" fill="#333">2k</text>
<rect x="560.0" y="398.8" width="14" height="1.2" fill="#59a14f" rx="1"/>
<text x="567.0" y="395.8" text-anchor="middle" font-size="7" fill="#333">10</text>
<rect x="576.0" y="398.7" width="14" height="1.3" fill="url(#Irminipinline_disk)" rx="1"/>
<text x="583.0" y="395.7" text-anchor="middle" font-size="7" fill="#333">11</text>
<rect x="592.0" y="398.8" width="14" height="1.2" fill="url(#Irminipcache_disk)" rx="1"/>
<text x="599.0" y="395.8" text-anchor="middle" font-size="7" fill="#333">10</text>
<rect x="608.0" y="226.0" width="14" height="174.0" fill="#9c755f" rx="1"/>
<text x="615.0" y="223.0" text-anchor="middle" font-size="7" fill="#333">1k</text>
<rect x="624.0" y="244.0" width="14" height="156.0" fill="url(#Irminipinline_lavyek)" rx="1"/>
<text x="631.0" y="241.0" text-anchor="middle" font-size="7" fill="#333">1k</text>
<rect x="640.0" y="278.4" width="14" height="121.6" fill="url(#Irminipcache_lavyek)" rx="1"/>
<text x="647.0" y="275.4" text-anchor="middle" font-size="7" fill="#333">1k</text>
<rect x="656.0" y="52.2" width="14" height="347.8" fill="#f28e2b" rx="1"/>
<text x="663.0" y="49.2" text-anchor="middle" font-size="7" fill="#333">3k</text>
<rect x="672.0" y="154.0" width="14" height="246.0" fill="#e15759" rx="1"/>
<text x="679.0" y="151.0" text-anchor="middle" font-size="7" fill="#333">2k</text>
<rect x="688.0" y="376.2" width="14" height="23.8" fill="#76b7b2" rx="1"/>
<text x="695.0" y="373.2" text-anchor="middle" font-size="7" fill="#333">196</text>
<rect x="704.0" y="380.5" width="14" height="19.5" fill="#b07aa1" rx="1"/>
<text x="711.0" y="377.5" text-anchor="middle" font-size="7" fill="#333">161</text>
<text x="615.0" y="416" text-anchor="middle" font-size="11" font-weight="bold" fill="#333">incremental</text>
<line x1="768" y1="300.0" x2="974" y2="300.0" stroke="#e0e0e0" stroke-width="0.5"/>
<line x1="768" y1="200.0" x2="974" y2="200.0" stroke="#e0e0e0" stroke-width="0.5"/>
<line x1="768" y1="100.0" x2="974" y2="100.0" stroke="#e0e0e0" stroke-width="0.5"/>
<line x1="768" y1="0.0" x2="974" y2="0.0" stroke="#e0e0e0" stroke-width="0.5"/>
<text x="764.0" y="4.0" text-anchor="end" font-size="8" fill="#999">17k</text>
<rect x="768.0" y="364.2" width="14" height="35.8" fill="#4e79a7" rx="1"/>
<text x="775.0" y="361.2" text-anchor="middle" font-size="7" fill="#333">2k</text>
<rect x="784.0" y="363.2" width="14" height="36.8" fill="url(#Irminipinline_memory)" rx="1"/>
<text x="791.0" y="360.2" text-anchor="middle" font-size="7" fill="#333">2k</text>
<rect x="800.0" y="365.5" width="14" height="34.5" fill="url(#Irminipcache_memory)" rx="1"/>
<text x="807.0" y="362.5" text-anchor="middle" font-size="7" fill="#333">1k</text>
<rect x="816.0" y="397.9" width="14" height="2.1" fill="#59a14f" rx="1"/>
<text x="823.0" y="394.9" text-anchor="middle" font-size="7" fill="#333">91</text>
<rect x="832.0" y="397.8" width="14" height="2.2" fill="url(#Irminipinline_disk)" rx="1"/>
<text x="839.0" y="394.8" text-anchor="middle" font-size="7" fill="#333">92</text>
<rect x="848.0" y="397.8" width="14" height="2.2" fill="url(#Irminipcache_disk)" rx="1"/>
<text x="855.0" y="394.8" text-anchor="middle" font-size="7" fill="#333">94</text>
<rect x="864.0" y="369.9" width="14" height="30.1" fill="#9c755f" rx="1"/>
<text x="871.0" y="366.9" text-anchor="middle" font-size="7" fill="#333">1k</text>
<rect x="880.0" y="369.6" width="14" height="30.4" fill="url(#Irminipinline_lavyek)" rx="1"/>
<text x="887.0" y="366.6" text-anchor="middle" font-size="7" fill="#333">1k</text>
<rect x="896.0" y="370.5" width="14" height="29.5" fill="url(#Irminipcache_lavyek)" rx="1"/>
<text x="903.0" y="367.5" text-anchor="middle" font-size="7" fill="#333">1k</text>
<rect x="912.0" y="52.2" width="14" height="347.8" fill="#f28e2b" rx="1"/>
<text x="919.0" y="49.2" text-anchor="middle" font-size="7" fill="#333">15k</text>
<rect x="928.0" y="221.5" width="14" height="178.5" fill="#e15759" rx="1"/>
<text x="935.0" y="218.5" text-anchor="middle" font-size="7" fill="#333">8k</text>
<rect x="944.0" y="337.1" width="14" height="62.9" fill="#76b7b2" rx="1"/>
<text x="951.0" y="334.1" text-anchor="middle" font-size="7" fill="#333">3k</text>
<rect x="960.0" y="362.8" width="14" height="37.2" fill="#b07aa1" rx="1"/>
<text x="967.0" y="359.8" text-anchor="middle" font-size="7" fill="#333">2k</text>
<text x="871.0" y="416" text-anchor="middle" font-size="11" font-weight="bold" fill="#333">large-values</text>
<line x1="1024" y1="300.0" x2="1230" y2="300.0" stroke="#e0e0e0" stroke-width="0.5"/>
<line x1="1024" y1="200.0" x2="1230" y2="200.0" stroke="#e0e0e0" stroke-width="0.5"/>
<line x1="1024" y1="100.0" x2="1230" y2="100.0" stroke="#e0e0e0" stroke-width="0.5"/>
<line x1="1024" y1="0.0" x2="1230" y2="0.0" stroke="#e0e0e0" stroke-width="0.5"/>
<text x="1020.0" y="4.0" text-anchor="end" font-size="8" fill="#999">789k</text>
<rect x="1072.0" y="399.9" width="14" height="0.1" fill="#59a14f" rx="1"/>
<text x="1079.0" y="396.9" text-anchor="middle" font-size="7" fill="#333">263</text>
<rect x="1088.0" y="399.9" width="14" height="0.1" fill="url(#Irminipinline_disk)" rx="1"/>
<text x="1095.0" y="396.9" text-anchor="middle" font-size="7" fill="#333">264</text>
<rect x="1104.0" y="399.9" width="14" height="0.1" fill="url(#Irminipcache_disk)" rx="1"/>
<text x="1111.0" y="396.9" text-anchor="middle" font-size="7" fill="#333">266</text>
<rect x="1120.0" y="173.3" width="14" height="226.7" fill="#9c755f" rx="1"/>
<text x="1127.0" y="170.3" text-anchor="middle" font-size="7" fill="#333">447k</text>
<rect x="1136.0" y="190.9" width="14" height="209.1" fill="url(#Irminipinline_lavyek)" rx="1"/>
<text x="1143.0" y="187.9" text-anchor="middle" font-size="7" fill="#333">412k</text>
<rect x="1152.0" y="52.2" width="14" height="347.8" fill="url(#Irminipcache_lavyek)" rx="1"/>
<text x="1159.0" y="49.2" text-anchor="middle" font-size="7" fill="#333">686k</text>
<rect x="1184.0" y="399.2" width="14" height="0.8" fill="#e15759" rx="1"/>
<text x="1191.0" y="396.2" text-anchor="middle" font-size="7" fill="#333">2k</text>
<text x="1127.0" y="416" text-anchor="middle" font-size="11" font-weight="bold" fill="#333">concurrent</text>
<line x1="0" y1="400" x2="1230" y2="400" stroke="#333" stroke-width="1"/>
</g>
<g transform="translate(120,500)">
<rect x="0" y="0" width="12" height="12" fill="#4e79a7" rx="2"/>
<text x="16" y="10" font-size="10" fill="#333">Irmini (memory)</text>
<rect x="190" y="0" width="12" height="12" fill="#59a14f" rx="2"/>
<text x="206" y="10" font-size="10" fill="#333">Irmini (disk)</text>
<rect x="380" y="0" width="12" height="12" fill="#9c755f" rx="2"/>
<text x="396" y="10" font-size="10" fill="#333">Irmini (lavyek)</text>
<rect x="570" y="0" width="12" height="12" fill="#f28e2b" rx="2"/>
<text x="586" y="10" font-size="10" fill="#333">Irmin (memory)</text>
<rect x="0" y="20" width="12" height="12" fill="#e15759" rx="2"/>
<text x="16" y="30" font-size="10" fill="#333">Irmin-pack</text>
<rect x="190" y="20" width="12" height="12" fill="#76b7b2" rx="2"/>
<text x="206" y="30" font-size="10" fill="#333">Irmin-fs</text>
<rect x="380" y="20" width="12" height="12" fill="#b07aa1" rx="2"/>
<text x="396" y="30" font-size="10" fill="#333">Irmin-git</text>
<text x="0" y="56" font-size="9" fill="#888" font-style="italic">Diagonal stripes = +inlining, horizontal stripes = +cache (lighter shade of same color)</text>
</g>
</svg>